<svg width="570" height="519" viewBox="0 0 570 519" fill="none" xmlns="http://www.w3.org/2000/svg">
<path d="M218.242 -155.253C165.914 -133.99 119.508 -100.377 82.9898 -57.2864C46.471 -14.1956 20.9238 37.0935 8.5298 92.2009C-3.86425 147.308 -2.73689 204.597 11.8156 259.174C26.3681 313.751 53.9133 363.995 92.0991 405.616C130.285 447.237 177.976 478.997 231.101 498.185C284.226 517.374 341.206 523.419 397.174 515.806C453.143 508.193 506.437 487.147 552.507 454.466C598.576 421.785 636.051 378.44 661.732 328.132L593.957 293.534C573.86 332.905 544.532 366.826 508.479 392.402C472.426 417.978 430.718 434.448 386.918 440.406C343.118 446.364 298.526 441.632 256.952 426.616C215.377 411.6 178.054 386.744 148.17 354.172C118.287 321.6 96.7302 282.28 85.3416 239.569C73.9531 196.857 73.0708 152.024 82.7702 108.898C92.4696 65.7718 112.463 25.6337 141.042 -8.08855C169.621 -41.8108 205.937 -68.1154 246.888 -84.7558L218.242 -155.253Z" fill="#2B6CB0"/>
</svg>
